<?xml version="1.0" encoding="UTF-8"?>
<svg xmlns="http://www.w3.org/2000/svg" xmlns:xlink="http://www.w3.org/1999/xlink" viewBox="0 0 537.64 523.93">
  <defs>
    <style>
      .cls-1 {
        fill: url(#linear-gradient-12);
      }

      .cls-1, .cls-2, .cls-3, .cls-4, .cls-5, .cls-6, .cls-7, .cls-8, .cls-9, .cls-10, .cls-11, .cls-12, .cls-13, .cls-14, .cls-15, .cls-16, .cls-17, .cls-18, .cls-19, .cls-20, .cls-21, .cls-22, .cls-23, .cls-24 {
        mix-blend-mode: screen;
      }

      .cls-2 {
        fill: url(#linear-gradient-4);
      }

      .cls-3 {
        fill: url(#linear-gradient-2);
      }

      .cls-4 {
        fill: url(#linear-gradient);
      }

      .cls-5 {
        fill: url(#linear-gradient-19);
      }

      .cls-25 {
        isolation: isolate;
      }

      .cls-6 {
        fill: url(#linear-gradient-6);
      }

      .cls-7 {
        fill: url(#linear-gradient-3);
      }

      .cls-8 {
        fill: url(#linear-gradient-10);
      }

      .cls-9 {
        fill: url(#linear-gradient-23);
      }

      .cls-10 {
        fill: url(#linear-gradient-5);
      }

      .cls-11 {
        fill: url(#linear-gradient-15);
      }

      .cls-12 {
        fill: url(#linear-gradient-18);
      }

      .cls-13 {
        fill: url(#linear-gradient-11);
      }

      .cls-14 {
        fill: url(#linear-gradient-8);
      }

      .cls-15 {
        fill: url(#linear-gradient-14);
      }

      .cls-16 {
        fill: url(#linear-gradient-9);
      }

      .cls-17 {
        fill: url(#linear-gradient-16);
      }

      .cls-18 {
        fill: url(#linear-gradient-17);
      }

      .cls-19 {
        fill: url(#linear-gradient-13);
      }

      .cls-20 {
        fill: url(#linear-gradient-21);
      }

      .cls-21 {
        fill: url(#linear-gradient-7);
      }

      .cls-22 {
        fill: url(#linear-gradient-22);
      }

      .cls-23 {
        fill: url(#linear-gradient-24);
      }

      .cls-24 {
        fill: url(#linear-gradient-20);
      }
    </style>
    <linearGradient id="linear-gradient" x1="-117.6" y1="18.88" x2="-130.38" y2="327.67" gradientTransform="translate(-46.26 132.09) rotate(-90.39)" gradientUnits="userSpaceOnUse">
      <stop offset="0" stop-color="#9e1f63"/>
      <stop offset="0" stop-color="#ee2a7b"/>
      <stop offset="1" stop-color="#27aae1"/>
    </linearGradient>
    <linearGradient id="linear-gradient-2" x1="58.53" y1="22.37" x2="50.76" y2="210.19" gradientTransform="translate(73.69 311.86) rotate(-120.39)" xlink:href="#linear-gradient"/>
    <linearGradient id="linear-gradient-3" x1="128.05" y1="121.69" x2="125.16" y2="191.39" gradientTransform="translate(241.64 427.59) rotate(-150.39)" xlink:href="#linear-gradient"/>
    <linearGradient id="linear-gradient-4" x1="195.11" y1="139.18" x2="191.25" y2="232.58" gradientTransform="translate(469.78 452) rotate(179.61)" xlink:href="#linear-gradient"/>
    <linearGradient id="linear-gradient-5" x1="230.76" y1="162.78" x2="222" y2="374.4" gradientTransform="translate(676.57 429.4) rotate(149.61)" xlink:href="#linear-gradient"/>
    <linearGradient id="linear-gradient-6" x1="193.27" y1="247.72" x2="180.79" y2="549.29" gradientTransform="translate(846.42 335.22) rotate(119.61)" xlink:href="#linear-gradient"/>
    <linearGradient id="linear-gradient-7" x1="136.48" y1="527.29" x2="123.75" y2="834.88" gradientTransform="translate(1078.49 76.82) rotate(85.26)" xlink:href="#linear-gradient"/>
    <linearGradient id="linear-gradient-8" x1="-277.85" y1="269.64" x2="-285.52" y2="454.96" gradientTransform="translate(-33.52 -118.53) rotate(-60.39)" xlink:href="#linear-gradient"/>
    <linearGradient id="linear-gradient-9" x1="-99.99" y1="609.49" x2="-103.19" y2="686.72" gradientTransform="translate(29.96 -336.48) rotate(-25.21)" xlink:href="#linear-gradient"/>
    <linearGradient id="linear-gradient-10" x1="161.37" y1="669.96" x2="156.79" y2="780.66" gradientTransform="translate(131.7 -475.27) rotate(1.19)" xlink:href="#linear-gradient"/>
    <linearGradient id="linear-gradient-11" x1="393.19" y1="619.73" x2="384.75" y2="823.7" gradientTransform="translate(336.69 -606.43) rotate(27.59)" xlink:href="#linear-gradient"/>
    <linearGradient id="linear-gradient-12" x1="611.63" y1="490.56" x2="599.8" y2="776.4" gradientTransform="translate(564.38 -640.25) rotate(53.99)" xlink:href="#linear-gradient"/>
    <linearGradient id="linear-gradient-13" x1="186.56" y1="-129.39" x2="174.11" y2="171.54" gradientTransform="translate(92.12 105.69) rotate(-.68)" xlink:href="#linear-gradient"/>
    <linearGradient id="linear-gradient-14" x1="399.64" y1="45.66" x2="392.14" y2="227" gradientTransform="translate(-87.04 226.56) rotate(-30.68)" xlink:href="#linear-gradient"/>
    <linearGradient id="linear-gradient-15" x1="414.44" y1="309.08" x2="411.46" y2="381.04" gradientTransform="translate(-201.91 395.09) rotate(-60.68)" xlink:href="#linear-gradient"/>
    <linearGradient id="linear-gradient-16" x1="351.15" y1="441.85" x2="347.17" y2="537.94" gradientTransform="translate(-225.16 623.35) rotate(-90.68)" xlink:href="#linear-gradient"/>
    <linearGradient id="linear-gradient-17" x1="215.33" y1="503.28" x2="206.54" y2="715.72" gradientTransform="translate(-201.51 830.03) rotate(-120.68)" xlink:href="#linear-gradient"/>
    <linearGradient id="linear-gradient-18" x1="9.32" y1="538.58" x2="-2.99" y2="836.21" gradientTransform="translate(-106.47 999.39) rotate(-150.68)" xlink:href="#linear-gradient"/>
    <linearGradient id="linear-gradient-19" x1="-179.19" y1="667.07" x2="-191.6" y2="966.85" gradientTransform="translate(153.11 1230.15) rotate(174.97)" xlink:href="#linear-gradient"/>
    <linearGradient id="linear-gradient-20" x1="-92.21" y1="-11.68" x2="-99.63" y2="167.68" gradientTransform="translate(342.8 117.16) rotate(29.32)" xlink:href="#linear-gradient"/>
    <linearGradient id="linear-gradient-21" x1="-112.91" y1="269.13" x2="-116.2" y2="348.76" gradientTransform="translate(561.07 179.53) rotate(64.5)" xlink:href="#linear-gradient"/>
    <linearGradient id="linear-gradient-22" x1="-2.87" y1="368.79" x2="-7.56" y2="481.9" gradientTransform="translate(700.38 280.57) rotate(90.9)" xlink:href="#linear-gradient"/>
    <linearGradient id="linear-gradient-23" x1="111.27" y1="423.45" x2="102.8" y2="627.99" gradientTransform="translate(832.57 484.89) rotate(117.3)" xlink:href="#linear-gradient"/>
    <linearGradient id="linear-gradient-24" x1="272.14" y1="443.2" x2="260.45" y2="725.81" gradientTransform="translate(867.55 712.4) rotate(143.7)" xlink:href="#linear-gradient"/>
  </defs>
  <g class="cls-25">
    <g id="Layer_2" data-name="Layer 2">
      <g id="Layer_1-2" data-name="Layer 1">
        <g>
          <path class="cls-4" d="m136.22,294.55c-58.17,14.73-108.98-1.12-136.22-44.84,27.17-41.32,78.05-52.75,136.37-33.19,58.31,19.49,109.14,39.17,136.22,44.32-27.33,3.11-78.19,18.92-136.36,33.72Z"/>
          <path class="cls-3" d="m116.78,256.4c-50.44-22.89-78.18-71.43-77.49-117.35,47.95,6.86,108.47,43.93,158.99,83.79,50.47,29.18,78.05,39.61,77.16,38.07-47.91,2.59-108.26,7.69-158.65-4.52Z"/>
          <path class="cls-7" d="m144.16,220.65c-29.13-37.42-26.21-68.8,2.38-69.22,55.86,49.76,109.71,99.22,138.76,119.32,29.01,9.49,25.92-1.08-2.71-9.53-55.66-2.11-109.35-13.76-138.43-40.58Z"/>
          <path class="cls-2" d="m194.08,227.27c.1-15.64,32.98-1.68,81.79,40,48.65,40.12,81.22,51.25,80.97,32.61-.25-18.58-33.14-36.38-81.79-39.47-48.49-1.91-81.08-17.42-80.97-33.13Z"/>
          <path class="cls-10" d="m265.69,258.84c29.35,21.88,83.35,71.13,139.21,118.96,28.29-4,30.85-38.59,1.42-77.44-29.38-28.17-83.22-39.31-138.87-39.68-28.33-5.44-31.07-13.03-1.76-1.83Z"/>
          <path class="cls-6" d="m343.95,301.02c50.68,40.36,111.19,77.13,158.97,83.12.36-46.94-27.69-96.14-78.3-119.18-50.57-12.43-110.9-7.25-158.64-4.37-.56-.71,27.33,10.68,77.97,40.43Z"/>
          <path class="cls-21" d="m408.39,302.95c58.11,14.32,106.14-4.43,129.24-50.1-31.1-38.99-84.39-47.63-142.36-28.09-57.98,17.61-106.02,33.18-129.3,35.78,30.97,6.21,84.3,26.15,142.42,42.4Z"/>
          <path class="cls-14" d="m194.92,294.71c-50.36,36.28-110.58,68.29-158.32,70.59-.76-46.81,26.89-93.65,77.32-112.61,50.48-8.35,110.87,1.59,158.66,8.16.56-.84-27.25,8.19-77.66,33.86Z"/>
          <path class="cls-16" d="m288.37,250.27c-24.54,14.07-75.44,57.63-130.74,105.99-32.5,4.24-40.76-23.18-16.32-59.3,24.48-26.71,75.52-37.53,131.03-36.12,32.5-4.61,40.6-15.21,16.02-10.56Z"/>
          <path class="cls-8" d="m356.49,221.43c1.36-19.47-30.01-9.63-77.71,29.82-49.03,42.97-82.88,58.67-84.38,43.89-1.5-15.38,29.84-31.61,77.69-34.32,49.2-3,83.04-20.52,84.4-39.39Z"/>
          <path class="cls-13" d="m409.05,224.19c27.01-38.34,21.69-71.46-8.57-73.71-55.44,46.82-107.86,93.02-134.96,112-27.13,8.84-21.99,1.5,8.25-1.59,55.65,1.89,108.22-8.5,135.27-36.7Z"/>
          <path class="cls-1" d="m431.68,258.06c47.12-26.69,69.05-77.12,62.54-120.22-50.41,12.51-110.59,51.82-157.67,89.35-47.13,25.87-69.23,33.76-62.9,33.67,50.49,6.41,110.86,12.24,158.03-2.8Z"/>
        </g>
        <g>
          <path class="cls-19" d="m231.99,132.97c-15.43-56.61.57-106.2,45.3-132.97,42.54,26.27,54.54,75.8,34.78,132.72-19.69,56.92-39.62,106.54-44.76,132.96-3.34-26.62-19.82-76.11-35.32-132.72Z"/>
          <path class="cls-15" d="m271.04,113.83c23.22-49.27,72.89-76.54,120.01-76.09-6.78,46.76-44.51,105.92-85.15,155.34-29.68,49.32-40.23,76.25-38.66,75.38-2.91-46.67-8.46-105.46,3.8-154.63Z"/>
          <path class="cls-11" d="m307.87,140.34c38.25-28.57,70.46-25.88,71.04,1.98-50.77,54.68-101.24,107.39-121.72,135.8-9.59,28.32,1.24,25.25,9.77-2.69,1.87-54.25,13.55-106.62,40.91-135.09Z"/>
          <path class="cls-17" d="m301.35,189.02c16.05.02,1.9,32.13-40.62,79.9-40.91,47.6-52.17,79.4-33.03,79.06,19.06-.33,37.16-32.47,40.08-79.89,1.71-47.26,17.45-79.09,33.57-79.07Z"/>
          <path class="cls-18" d="m269.32,258.95c-22.3,28.71-72.55,81.57-121.34,136.23,4.26,27.55,39.76,29.87,79.48,1.01,28.75-28.77,39.9-81.29,39.99-135.52,5.43-27.64,13.21-30.34,1.87-1.72Z"/>
          <path class="cls-12" d="m226.46,335.42c-41.15,49.59-78.56,108.73-84.45,155.32,48.17.12,98.51-27.46,121.89-76.89,12.49-49.34,6.86-108.1,3.65-154.61.73-.55-10.82,26.69-41.08,76.18Z"/>
          <path class="cls-5" d="m224.81,398.23c-14.39,56.7,5.11,103.41,52.09,125.7,39.85-30.5,48.43-82.47,28.07-138.86-18.38-56.41-34.6-103.15-37.4-125.83-6.21,30.21-26.39,82.28-42.76,138.99Z"/>
          <path class="cls-24" d="m232.14,190.17c-37.49-48.9-70.66-107.42-73.27-153.94,48.03-.97,96.24,25.75,115.96,74.8,8.84,49.15-1.05,108.05-7.54,154.65.87.54-8.55-26.52-35.16-75.51Z"/>
          <path class="cls-20" d="m278.24,281.01c-14.56-23.84-59.53-73.23-109.45-126.88-4.52-31.65,23.57-39.83,60.77-16.19,27.54,23.73,38.91,73.41,37.76,127.51,4.91,31.65,15.82,39.49,10.92,15.56Z"/>
          <path class="cls-22" d="m308.19,347.25c19.99,1.23,9.72-29.29-31.01-75.58-44.35-47.57-60.64-80.48-45.48-82.01,15.78-1.54,32.6,28.92,35.63,75.54,3.34,47.93,21.49,80.82,40.86,82.05Z"/>
          <path class="cls-9" d="m305.64,398.48c39.49,26.13,73.45,20.79,75.6-8.71-48.33-53.8-96.02-104.66-115.65-130.96-9.21-26.4-1.66-21.42,1.68,8.03-1.64,54.24,9.29,105.42,38.37,131.64Z"/>
          <path class="cls-23" d="m271,420.7c27.64,45.79,79.5,66.91,123.7,60.36-13.11-49.06-53.76-107.51-92.52-153.2-26.8-45.8-35.01-67.3-34.88-61.13-6.31,49.23-11.97,108.09,3.7,153.98Z"/>
        </g>
      </g>
    </g>
  </g>
</svg>